<svg xmlns="http://www.w3.org/2000/svg" viewBox="0 0 2634.2 1136">
  <defs>
    <style>
      .cls-1 {
        fill: #fff;
      }
    </style>
  </defs>
  <title>logo_white</title>
  <g id="Layer_2" data-name="Layer 2">
    <g id="Layer_1-2" data-name="Layer 1">
      <g>
        <rect class="cls-1" x="1355.52" y="82.32" width="85.06" height="107.01" rx="42.53"/>
        <path class="cls-1" d="M2604,1072.89H2453A142.59,142.59,0,0,1,2310.42,930.3V406.11h277.14a30.19,30.19,0,0,0,30.18-30.19h0a30.18,30.18,0,0,0-30.18-30.18H2310.42V111.13a34.3,34.3,0,0,0-34.3-34.3h0a34.3,34.3,0,0,0-34.3,34.3V345.74h-480.2V203A142.59,142.59,0,0,1,1904.21,60.37h151a30.19,30.19,0,0,0,30.18-30.19h0A30.18,30.18,0,0,0,2055.23,0H1911q-218,0-218,219V345.74H853.37V112.27c0-18.89-14.77-35.09-33.65-35.43a34.29,34.29,0,0,0-35,34.29V345.74H221.05Q0,345.74,0,549.34q0,166.88,191.88,199L385.29,780.5q110.52,18.36,110.52,156.14,0,136.27-139.69,136.25H31.18c-16.61,0-30.87,13-31.17,29.62a30.18,30.18,0,0,0,30.17,30.75H343.85q222.54,0,222.57-205.14,0-185.21-187.27-215.85L185.74,680.13Q69.07,660.26,69.08,542.35q0-136.23,141.22-136.24H784.77V914.32q0,219,218,218.94h146c16.62,0,30.87-13,31.18-29.62a30.18,30.18,0,0,0-30.18-30.75h-151A142.59,142.59,0,0,1,856.12,930.3l-2.75-524.19h510.38v694.45c0,18.89,14.77,35.09,33.65,35.43a34.29,34.29,0,0,0,34.95-34.29V406.11H1693v691.71c0,18.88,14.78,35.08,33.66,35.43a34.3,34.3,0,0,0,34.94-34.29V406.11h480.2V914.32q0,219,218,218.94H2603c16.62,0,30.87-13,31.18-29.62A30.18,30.18,0,0,0,2604,1072.89Z"/>
      </g>
    </g>
  </g>
</svg>
